<mxfile host="app.diagrams.net" agent="Mozilla/5.0 (Windows NT 10.0; Win64; x64) AppleWebKit/537.36 (KHTML, like Gecko) Chrome/128.0.0.0 Safari/537.36" version="24.7.10">
  <diagram name="PÃ¡gina-1" id="fJciz8duXzuph-7Kfwn_">
    <mxGraphModel grid="1" page="1" gridSize="10" guides="1" tooltips="1" connect="1" arrows="1" fold="1" pageScale="1" pageWidth="827" pageHeight="1169" math="0" shadow="0">
      <root>
        <mxCell id="0" />
        <mxCell id="1" parent="0" />
        <mxCell id="rHjoLshH7WLVSAhBOQ9v-1" value="" style="rounded=0;whiteSpace=wrap;html=1;" vertex="1" parent="1">
          <mxGeometry x="200" y="120" width="510" height="510" as="geometry" />
        </mxCell>
        <mxCell id="rHjoLshH7WLVSAhBOQ9v-2" value="Usuario Alumno" style="shape=umlActor;verticalLabelPosition=bottom;verticalAlign=top;html=1;" vertex="1" parent="1">
          <mxGeometry x="100" y="345" width="30" height="60" as="geometry" />
        </mxCell>
        <mxCell id="rHjoLshH7WLVSAhBOQ9v-3" value="Ver perfil de otros usuarios" style="ellipse;whiteSpace=wrap;html=1;" vertex="1" parent="1">
          <mxGeometry x="230" y="340" width="140" height="70" as="geometry" />
        </mxCell>
        <mxCell id="rHjoLshH7WLVSAhBOQ9v-4" value="Acceder a foto de perfil" style="ellipse;whiteSpace=wrap;html=1;" vertex="1" parent="1">
          <mxGeometry x="510" y="170" width="140" height="70" as="geometry" />
        </mxCell>
        <mxCell id="rHjoLshH7WLVSAhBOQ9v-5" value="Acceder a deporte favorito" style="ellipse;whiteSpace=wrap;html=1;" vertex="1" parent="1">
          <mxGeometry x="510" y="340" width="140" height="70" as="geometry" />
        </mxCell>
        <mxCell id="rHjoLshH7WLVSAhBOQ9v-6" value="Acceder a nombre seleccioando" style="ellipse;whiteSpace=wrap;html=1;" vertex="1" parent="1">
          <mxGeometry x="510" y="514.5" width="140" height="70" as="geometry" />
        </mxCell>
        <mxCell id="rHjoLshH7WLVSAhBOQ9v-7" value="" style="endArrow=open;startArrow=none;endFill=0;startFill=0;endSize=8;html=1;verticalAlign=bottom;labelBackgroundColor=none;strokeWidth=1;rounded=0;exitX=0.5;exitY=0.5;exitDx=0;exitDy=0;exitPerimeter=0;" edge="1" parent="1" source="rHjoLshH7WLVSAhBOQ9v-2" target="rHjoLshH7WLVSAhBOQ9v-3">
          <mxGeometry width="160" relative="1" as="geometry">
            <mxPoint x="250" y="470" as="sourcePoint" />
            <mxPoint x="410" y="470" as="targetPoint" />
          </mxGeometry>
        </mxCell>
        <mxCell id="rHjoLshH7WLVSAhBOQ9v-8" value="&amp;lt;&amp;lt;include&amp;gt;&amp;gt;" style="html=1;verticalAlign=bottom;labelBackgroundColor=none;endArrow=open;endFill=0;dashed=1;rounded=0;exitX=1;exitY=1;exitDx=0;exitDy=0;entryX=0;entryY=0;entryDx=0;entryDy=0;" edge="1" parent="1" source="rHjoLshH7WLVSAhBOQ9v-3" target="rHjoLshH7WLVSAhBOQ9v-6">
          <mxGeometry width="160" relative="1" as="geometry">
            <mxPoint x="330" y="460" as="sourcePoint" />
            <mxPoint x="490" y="460" as="targetPoint" />
          </mxGeometry>
        </mxCell>
        <mxCell id="rHjoLshH7WLVSAhBOQ9v-10" value="&amp;lt;&amp;lt;include&amp;gt;&amp;gt;" style="html=1;verticalAlign=bottom;labelBackgroundColor=none;endArrow=open;endFill=0;dashed=1;rounded=0;exitX=1;exitY=0.5;exitDx=0;exitDy=0;entryX=0;entryY=0.5;entryDx=0;entryDy=0;" edge="1" parent="1" source="rHjoLshH7WLVSAhBOQ9v-3" target="rHjoLshH7WLVSAhBOQ9v-5">
          <mxGeometry width="160" relative="1" as="geometry">
            <mxPoint x="540" y="450" as="sourcePoint" />
            <mxPoint x="700" y="450" as="targetPoint" />
          </mxGeometry>
        </mxCell>
        <mxCell id="rHjoLshH7WLVSAhBOQ9v-11" value="&amp;lt;&amp;lt;include&amp;gt;&amp;gt;" style="html=1;verticalAlign=bottom;labelBackgroundColor=none;endArrow=open;endFill=0;dashed=1;rounded=0;exitX=1;exitY=0;exitDx=0;exitDy=0;entryX=0;entryY=0.5;entryDx=0;entryDy=0;" edge="1" parent="1" source="rHjoLshH7WLVSAhBOQ9v-3" target="rHjoLshH7WLVSAhBOQ9v-4">
          <mxGeometry width="160" relative="1" as="geometry">
            <mxPoint x="390" y="290" as="sourcePoint" />
            <mxPoint x="550" y="290" as="targetPoint" />
          </mxGeometry>
        </mxCell>
      </root>
    </mxGraphModel>
  </diagram>
</mxfile>
